<svg width="19" height="20" viewBox="0 0 19 20" fill="none" xmlns="http://www.w3.org/2000/svg">
<path d="M14.1117 9.16602C14.5958 13.6452 16.5 14.9993 16.5 14.9993H1.5C1.5 14.9993 4 13.2218 4 6.99935C4 5.58518 4.52667 4.22852 5.46417 3.22852C6.4025 2.22852 7.675 1.66602 9 1.66602C9.28083 1.66602 9.56 1.69102 9.83333 1.74102M10.4417 17.4993C10.2953 17.7521 10.0851 17.962 9.83206 18.1079C9.57903 18.2538 9.29208 18.3306 9 18.3306C8.70792 18.3306 8.42097 18.2538 8.16794 18.1079C7.9149 17.962 7.70467 17.7521 7.55833 17.4993M14.8333 6.66602C15.4964 6.66602 16.1323 6.40262 16.6011 5.93378C17.0699 5.46494 17.3333 4.82906 17.3333 4.16602C17.3333 3.50297 17.0699 2.86709 16.6011 2.39825C16.1323 1.92941 15.4964 1.66602 14.8333 1.66602C14.1703 1.66602 13.5344 1.92941 13.0656 2.39825C12.5967 2.86709 12.3333 3.50297 12.3333 4.16602C12.3333 4.82906 12.5967 5.46494 13.0656 5.93378C13.5344 6.40262 14.1703 6.66602 14.8333 6.66602Z" stroke="white" stroke-width="1.5" stroke-linecap="round" stroke-linejoin="round"/>
</svg>
