<svg width="18" height="18" viewBox="0 0 18 18" fill="none" xmlns="http://www.w3.org/2000/svg">
<path d="M9.00033 0.667969C13.6028 0.667969 17.3337 4.3988 17.3337 9.0013C17.3337 13.6038 13.6028 17.3346 9.00033 17.3346C4.39783 17.3346 0.666992 13.6038 0.666992 9.0013C0.666992 4.3988 4.39783 0.667969 9.00033 0.667969ZM11.9462 5.98547L7.82116 10.1105L6.05449 8.34297C5.97712 8.26554 5.88526 8.20412 5.78415 8.16219C5.68304 8.12027 5.57466 8.09867 5.4652 8.09863C5.24415 8.09856 5.03211 8.1863 4.87574 8.34255C4.71938 8.49881 4.63149 8.71078 4.63141 8.93184C4.63133 9.1529 4.71907 9.36493 4.87533 9.5213L7.17366 11.8196C7.25878 11.9048 7.35986 11.9724 7.4711 12.0185C7.58234 12.0645 7.70158 12.0883 7.82199 12.0883C7.94241 12.0883 8.06164 12.0645 8.17289 12.0185C8.28413 11.9724 8.3852 11.9048 8.47033 11.8196L13.1253 7.16464C13.2817 7.00827 13.3695 6.79619 13.3695 6.57505C13.3695 6.35392 13.2817 6.14184 13.1253 5.98547C12.969 5.8291 12.7569 5.74126 12.5357 5.74126C12.3146 5.74126 12.1025 5.8291 11.9462 5.98547Z" fill="#1A392D"/>
</svg>
