<svg width="16" height="14" viewBox="0 0 16 14" fill="none" xmlns="http://www.w3.org/2000/svg">
<path d="M5.7245 4.48998L7.4565 1.00198C7.50692 0.901034 7.58446 0.816131 7.68043 0.75679C7.7764 0.697449 7.887 0.666016 7.99983 0.666016C8.11267 0.666016 8.22327 0.697449 8.31924 0.75679C8.41521 0.816131 8.49275 0.901034 8.54317 1.00198L10.2752 4.48998L14.1472 5.05264C14.2589 5.06813 14.3639 5.1147 14.4504 5.18705C14.5369 5.2594 14.6013 5.3546 14.6363 5.46179C14.6712 5.56899 14.6754 5.68385 14.6482 5.79328C14.621 5.9027 14.5636 6.00228 14.4825 6.08064L11.6812 8.79398L12.3425 12.6273C12.4272 13.1193 11.9072 13.494 11.4625 13.262L7.99983 11.4513L4.5365 13.262C4.0925 13.4946 3.5725 13.1193 3.65717 12.6266L4.3185 8.79331L1.51717 6.07998C1.43649 6.00156 1.37943 5.90208 1.35248 5.79285C1.32552 5.68362 1.32975 5.56902 1.36468 5.46207C1.39961 5.35513 1.46384 5.26012 1.55008 5.18787C1.63631 5.11561 1.74109 5.06899 1.8525 5.05331L5.7245 4.48998Z" stroke="#71DFE6" stroke-linecap="round" stroke-linejoin="round"/>
</svg>
