<svg width="18" height="18" viewBox="0 0 18 18" fill="none" xmlns="http://www.w3.org/2000/svg">
<path d="M8.58333 9H4.5C4.36739 9 4.24021 9.05268 4.14645 9.14645C4.05268 9.24021 4 9.36739 4 9.5V15.1667C4 15.2993 4.05268 15.4265 4.14645 15.5202C4.24021 15.614 4.36739 15.6667 4.5 15.6667H13.5C13.6326 15.6667 13.7598 15.614 13.8536 15.5202C13.9473 15.4265 14 15.2993 14 15.1667V14.4167M7.4425 2.65417C7.86417 2.45417 8.3775 2.33333 9 2.33333C11.6667 2.33333 12.3333 4.55583 12.3333 5.66667V9H13.5C13.6326 9 13.7598 9.05268 13.8536 9.14645C13.9473 9.24021 14 9.36739 14 9.5V9.83333M5.66667 5.66667V9M1.5 1.5L16.5 16.5" stroke="white" stroke-width="1.5" stroke-linecap="round" stroke-linejoin="round"/>
</svg>
