<svg width="20" height="18" viewBox="0 0 20 18" fill="none" xmlns="http://www.w3.org/2000/svg">
<path d="M7.15587 5.86394L9.32087 1.50394C9.38389 1.37776 9.48082 1.27163 9.60078 1.19745C9.72074 1.12328 9.85899 1.08398 10 1.08398C10.1411 1.08398 10.2793 1.12328 10.3993 1.19745C10.5193 1.27163 10.6162 1.37776 10.6792 1.50394L12.8442 5.86394L17.6842 6.56727C17.8238 6.58663 17.9552 6.64485 18.0633 6.73528C18.1714 6.82571 18.2519 6.94472 18.2956 7.07871C18.3393 7.2127 18.3444 7.35628 18.3105 7.49306C18.2765 7.62984 18.2047 7.75432 18.1034 7.85227L14.6017 11.2439L15.4284 16.0356C15.5342 16.6506 14.8842 17.1189 14.3284 16.8289L10 14.5656L5.67087 16.8289C5.11587 17.1198 4.46587 16.6506 4.5717 16.0348L5.39837 11.2431L1.8967 7.85144C1.79586 7.75342 1.72453 7.62907 1.69084 7.49253C1.65714 7.35599 1.66243 7.21274 1.70609 7.07906C1.74976 6.94537 1.83005 6.82662 1.93784 6.7363C2.04564 6.64597 2.17661 6.5877 2.31587 6.5681L7.15587 5.86394Z" stroke="white" stroke-width="1.5" stroke-linecap="round" stroke-linejoin="round"/>
</svg>
